<svg width="1920" height="997" viewBox="0 0 1920 997" version="1.1" xmlns="http://www.w3.org/2000/svg" xmlns:xlink="http://www.w3.org/1999/xlink">
<title>Vector</title>
<desc>Created using Figma</desc>
<g id="Canvas" transform="translate(3720 -4287)">
<g id="Vector">
<use xlink:href="#path0_fill" transform="translate(-3720 4288)" fill="#333333"/>
<use xlink:href="#path1_stroke" transform="translate(-3720 4288)" fill="#F2F2F2"/>
</g>
</g>
<defs>
<path id="path0_fill" d="M 0 995.5L 0 219.5L 1920 0L 1920 995.5L 0 995.5Z"/>
<path id="path1_stroke" d="M 0 219.5L -0.0567915 219.003L -0.5 219.054L -0.5 219.5L 0 219.5ZM 0 995.5L -0.5 995.5L -0.5 996L 0 996L 0 995.5ZM 1920 995.5L 1920 996L 1920.5 996L 1920.5 995.5L 1920 995.5ZM 1920 0L 1920.5 0L 1920.5 -0.560418L 1919.94 -0.496764L 1920 0ZM -0.5 219.5L -0.5 995.5L 0.5 995.5L 0.5 219.5L -0.5 219.5ZM 0 996L 1920 996L 1920 995L 0 995L 0 996ZM 1920.5 995.5L 1920.5 0L 1919.5 0L 1919.5 995.5L 1920.5 995.5ZM 1919.94 -0.496764L -0.0567915 219.003L 0.0567915 219.997L 1920.06 0.496764L 1919.94 -0.496764Z"/>
</defs>
</svg>
